<svg width="43" height="43" viewBox="0 0 43 43" fill="none" xmlns="http://www.w3.org/2000/svg">
<path d="M36.7029 27.7971C34.3611 25.4555 31.5738 23.722 28.5328 22.6726C31.7899 20.4293 33.9297 16.6749 33.9297 12.4297C33.9297 5.57597 28.3537 0 21.5 0C14.6463 0 9.07031 5.57597 9.07031 12.4297C9.07031 16.6749 11.2101 20.4293 14.4673 22.6726C11.4262 23.722 8.63897 25.4555 6.29723 27.7971C2.23642 31.858 0 37.2571 0 43H3.35938C3.35938 32.9972 11.4972 24.8594 21.5 24.8594C31.5028 24.8594 39.6406 32.9972 39.6406 43H43C43 37.2571 40.7636 31.858 36.7029 27.7971ZM21.5 21.5C16.4986 21.5 12.4297 17.4311 12.4297 12.4297C12.4297 7.42825 16.4986 3.35938 21.5 3.35938C26.5014 3.35938 30.5703 7.42825 30.5703 12.4297C30.5703 17.4311 26.5014 21.5 21.5 21.5Z" fill="#34C2CB"/>
</svg>
