<svg width="18" height="18" viewBox="0 0 18 18" fill="none" xmlns="http://www.w3.org/2000/svg">
<path d="M17.7925 9.28853C17.6553 9.42476 17.4761 9.49288 17.2969 9.49288C17.1162 9.49288 16.9356 9.42353 16.7981 9.28524L16.2422 8.72562V11.2857C16.2422 11.6741 15.9274 11.9888 15.5391 11.9888C15.1507 11.9888 14.836 11.6741 14.836 11.2857V7.31017L9.4885 1.92742C9.22606 1.70261 8.83962 1.70165 8.57622 1.9255L3.16312 7.32802C3.16326 7.33475 3.16408 7.34148 3.16408 7.34835V14.8015C3.16408 15.5768 3.79497 16.2077 4.57033 16.2077H13.4297C14.2051 16.2077 14.836 15.5768 14.836 14.8015C14.836 14.4131 15.1507 14.0983 15.5391 14.0983C15.9274 14.0983 16.2422 14.4131 16.2422 14.8015C16.2422 16.3522 14.9806 17.614 13.4297 17.614H4.57033C3.01947 17.614 1.75783 16.3522 1.75783 14.8015V8.73043L1.19986 9.2873C0.925066 9.56168 0.479845 9.56127 0.205462 9.28634C-0.0689217 9.01154 -0.0683723 8.56632 0.206423 8.29207L7.5994 0.913518C7.60887 0.904042 7.61862 0.894979 7.62851 0.886052C8.43161 0.171117 9.64052 0.173726 10.4405 0.891957C10.4503 0.900884 10.4601 0.910222 10.4694 0.91956L17.7957 8.29413C18.0694 8.56962 18.068 9.01484 17.7925 9.28853ZM7.66408 13.9577C7.66353 14.0683 7.75952 14.1339 7.88243 14.1335C7.96868 14.1331 8.06 14.0985 8.12015 14.0386L11.4393 10.2413C11.7274 9.90816 11.4947 9.38741 11.0525 9.38741H9.42423L10.7107 7.31319H8.21518L6.59511 10.2018C6.33034 10.6738 6.67407 11.2507 7.21804 11.2507H8.63047L7.68564 13.8694C7.67095 13.9016 7.66422 13.9311 7.66408 13.9577Z" fill="#41B8B2"/>
</svg>
