<svg width="22" height="23" viewBox="0 0 22 23" fill="none" xmlns="http://www.w3.org/2000/svg">
<g clip-path="url(#clip0)">
<path d="M14.7137 7.42208C14.7137 7.89591 14.3295 8.28011 13.8557 8.28011C13.3819 8.28011 12.9978 7.89591 12.9978 7.42208C12.9978 6.94825 13.3819 6.56422 13.8557 6.56422C14.3295 6.56422 14.7137 6.94825 14.7137 7.42208ZM11.2819 7.42208C11.2819 6.94825 10.8977 6.56422 10.4239 6.56422C9.95008 6.56422 9.56605 6.94825 9.56605 7.42208C9.56605 7.89591 9.95008 8.28011 10.4239 8.28011C10.8977 8.28011 11.2819 7.89591 11.2819 7.42208ZM17.2875 8.28011C17.7613 8.28011 18.1455 7.89591 18.1455 7.42208C18.1455 6.94825 17.7613 6.56422 17.2875 6.56422C16.8136 6.56422 16.4296 6.94825 16.4296 7.42208C16.4296 7.89591 16.8136 8.28011 17.2875 8.28011ZM12.9978 9.996H14.7137V22.0071H12.9978V20.9441L10.2143 20.124L9.93162 21.0958C9.67297 22.0327 8.81796 22.6504 7.88826 22.6504C7.70581 22.6504 7.52068 22.6267 7.33655 22.5769L4.61207 21.8406C4.05399 21.6897 3.59224 21.3281 3.31177 20.8226C3.03147 20.317 2.96953 19.7338 3.13704 19.1805L3.45561 18.1332L0 17.115V14.7977L12.9978 11.0613V9.996ZM8.56837 19.6391L5.10168 18.6179L4.77908 19.6789C4.73628 19.82 4.78177 19.9347 4.81248 19.9904C4.84336 20.0461 4.91671 20.1453 5.05989 20.1841L7.78436 20.9204C7.9982 20.9783 8.22009 20.8513 8.27833 20.6373L8.28236 20.623L8.56837 19.6391ZM12.9978 19.1554V12.8467L2.15951 15.9624L12.9978 19.1554ZM21.9996 7.47109C21.9996 7.46639 21.9997 7.46169 21.9997 7.45699C21.9996 5.20634 21.1404 3.39612 19.5153 2.22221C18.1254 1.21798 16.1747 0.687256 13.874 0.687256C11.5735 0.687256 9.62278 1.21798 8.23268 2.22221C6.60759 3.39612 5.74856 5.20634 5.74822 7.45716C5.74839 8.85767 6.07267 10.0759 6.7125 11.0867L8.47505 10.5925C7.80333 9.78904 7.46428 8.74185 7.46411 7.45716C7.46428 5.75637 8.06097 4.46312 9.23757 3.61315C10.3333 2.82159 11.9365 2.40315 13.874 2.40315C15.8116 2.40315 17.4149 2.82159 18.5106 3.61315C19.6872 4.46312 20.2839 5.75637 20.284 7.45699C20.2839 8.70711 19.9618 9.74137 19.3266 10.5314L19.1262 10.7807L19.138 11.1003C19.1598 11.6946 19.1047 12.2317 18.9653 12.7364C18.8637 12.5436 18.7533 12.3542 18.6314 12.1632L18.2351 11.5417L17.5609 11.84C17.2952 11.9576 16.8585 12.1396 16.5583 12.2267C17.9498 14.2796 18.4787 16.828 18.4787 16.828L19.5425 15.3751C20.4364 14.154 20.8582 12.868 20.8586 11.3502C21.61 10.299 21.9932 9.00319 21.9994 7.49308L22.0001 7.48334L21.9996 7.47109Z" fill="#2077DD"/>
</g>
<defs>
<clipPath id="clip0">
<rect width="22" height="22" fill="white" transform="translate(0 0.686279)"/>
</clipPath>
</defs>
</svg>
