<svg width="51" height="51" viewBox="0 0 51 51" fill="none" xmlns="http://www.w3.org/2000/svg">
<path d="M0 23.3401L25.5 1.19531L51 23.3401L48.3895 26.3459L46.0024 24.2728V43.841C46.0024 47.1339 43.3235 49.8125 40.0309 49.8125H10.9691C7.67654 49.8125 4.99759 47.1339 4.99759 43.841V24.2728L2.61047 26.3459L0 23.3401ZM8.97885 43.841C8.97885 44.9386 9.87183 45.8316 10.9691 45.8316H40.0309C41.1282 45.8316 42.0211 44.9386 42.0211 43.841V20.8152L25.5 6.46799L8.97885 20.8152V43.841ZM23.1409 19.1585L26.7292 27.8175H18.5729L23.9074 39.0636L27.391 41.0542V37.2722L24.7385 31.7983H32.666L27.4906 19.1585H23.1409Z" fill="#3E93D0"/>
</svg>
