<svg width="22" height="23" viewBox="0 0 22 23" fill="none" xmlns="http://www.w3.org/2000/svg">
<g clip-path="url(#clip0)">
<path d="M18.7117 10.8214L17.0369 9.14642L18.2516 7.93172L22 11.6802L18.2516 15.4286L17.0369 14.2139L18.7117 12.5391H13.7852V10.8214H18.7117ZM15.5032 20.9563H21.9877V22.674H0V3.26289C0 1.84224 1.15596 0.686279 2.57661 0.686279H12.9264C14.3472 0.686279 15.5032 1.84224 15.5032 3.26289V9.10345H13.7852V3.26289C13.7852 2.7894 13.4 2.40402 12.9264 2.40402H11.9198C12.0151 2.67291 12.0675 2.96194 12.0675 3.26289V20.9563H13.7852V14.2569H15.5032V20.9563ZM1.71774 20.9563H10.3498V3.26289C10.3498 2.7894 9.96439 2.40402 9.49089 2.40402H2.57661C2.10312 2.40402 1.71774 2.7894 1.71774 3.26289V20.9563ZM7.79446 10.8214C7.33205 10.8214 6.95708 11.1962 6.95708 11.6588C6.95708 12.1212 7.33205 12.4961 7.79446 12.4961C8.25705 12.4961 8.63185 12.1212 8.63185 11.6588C8.63185 11.1962 8.25705 10.8214 7.79446 10.8214Z" fill="#2077DD"/>
</g>
<defs>
<clipPath id="clip0">
<rect width="22" height="22" fill="white" transform="translate(0 0.686279)"/>
</clipPath>
</defs>
</svg>
