<svg width="18" height="18" viewBox="0 0 18 18" fill="none" xmlns="http://www.w3.org/2000/svg">
<path d="M8.5074 5.6526L9.66811 4.33397C9.46266 4.25954 9.24129 4.21875 9.01057 4.21875C7.94435 4.21875 7.07698 5.08612 7.07698 6.15234C7.07698 6.6779 7.28421 7.16954 7.66063 7.53676C7.93858 7.80785 7.94408 8.25307 7.67299 8.53088C7.53511 8.6722 7.35246 8.74306 7.16954 8.74306C6.99252 8.74306 6.81537 8.67673 6.67873 8.54324C6.02875 7.90933 5.67073 7.06009 5.67073 6.15234C5.67073 4.31076 7.16899 2.8125 9.01057 2.8125C9.84196 2.8125 10.6032 3.11792 11.1883 3.62219C11.1969 3.62906 11.2055 3.6351 11.2137 3.64238C11.2223 3.6498 11.2297 3.65804 11.2378 3.66573C11.9202 4.2778 12.3504 5.16577 12.3504 6.15234C12.3504 6.54071 12.0357 6.85547 11.6473 6.85547C11.2589 6.85547 10.9442 6.54071 10.9442 6.15234C10.9442 5.83099 10.8649 5.52791 10.7255 5.26094L9.56291 6.58177C9.42393 6.7397 9.22989 6.82031 9.03488 6.82031C8.86981 6.82031 8.70419 6.7625 8.57057 6.64494C8.27902 6.38841 8.25073 5.94402 8.5074 5.6526ZM18 12.375V17.2969C18 17.6852 17.6852 18 17.2969 18C16.9085 18 16.5938 17.6852 16.5938 17.2969V16.9453H1.40625V17.2969C1.40625 17.6852 1.09149 18 0.703125 18C0.314758 18 0 17.6852 0 17.2969V12.375C0 11.9866 0.314758 11.6719 0.703125 11.6719C1.09149 11.6719 1.40625 11.9866 1.40625 12.375V12.7266H6.89062V11.9321C4.53406 11.0693 2.84766 8.80403 2.84766 6.15234C2.84766 2.7599 5.60756 0 9 0C12.3924 0 15.1523 2.7599 15.1523 6.15234C15.1523 6.97769 14.9915 7.77901 14.6742 8.53404C14.5237 8.89206 14.1115 9.06029 13.7535 8.90991C13.3955 8.75954 13.2273 8.34727 13.3776 7.98926C13.6222 7.40767 13.7461 6.78955 13.7461 6.15234C13.7461 3.5354 11.6169 1.40625 9 1.40625C6.38306 1.40625 4.25391 3.5354 4.25391 6.15234C4.25391 8.76929 6.38306 10.8984 9 10.8984C9.84018 10.8984 10.6654 10.6762 11.3865 10.2559C11.722 10.0603 12.1524 10.1736 12.3481 10.5091C12.5436 10.8446 12.4302 11.2751 12.0947 11.4707C11.7801 11.6542 11.45 11.8078 11.1094 11.9318V12.7266H16.5938V12.375C16.5938 11.9866 16.9085 11.6719 17.2969 11.6719C17.6852 11.6719 18 11.9866 18 12.375ZM16.5938 15.5391V14.1328H10.4062C10.0179 14.1328 9.70312 13.8181 9.70312 13.4297V12.2636C9.47035 12.2904 9.23566 12.3047 9 12.3047C8.76228 12.3047 8.52773 12.2907 8.29688 12.2643V13.4297C8.29688 13.8181 7.98212 14.1328 7.59375 14.1328H1.40625V15.5391H16.5938Z" fill="#41B8B2"/>
</svg>
