<svg width="22" height="25" viewBox="0 0 22 25" fill="none" xmlns="http://www.w3.org/2000/svg">
<path d="M17.1201 1.56726C14.5533 1.56726 12.465 3.65323 12.465 6.21701C12.465 8.7806 14.5533 10.8666 17.1201 10.8666C19.6868 10.8666 21.775 8.7806 21.775 6.21701C21.775 3.65323 19.6868 1.56726 17.1201 1.56726Z" fill="#F14A41"/>
<path d="M16.9807 17.3588V12.328C13.6703 12.2537 11 9.5409 11 6.21696C11 5.24228 11.2301 4.32056 11.6378 3.5021C10.882 3.25938 10.0872 3.1344 9.27484 3.1344C5.02585 3.1344 1.56898 6.58732 1.56898 10.8315V17.3588C0.658034 17.6649 0 18.5262 0 19.5383C0 20.8058 1.03245 21.837 2.3014 21.837H16.2483C17.5172 21.837 18.5497 20.8058 18.5497 19.5383C18.5497 18.5262 17.8918 17.6649 16.9807 17.3588Z" fill="#2077DD"/>
<path d="M9.27509 24.9714C10.5936 24.9714 11.7598 24.3088 12.4589 23.3002H6.09131C6.79036 24.3088 7.95652 24.9714 9.27509 24.9714Z" fill="#2077DD"/>
<path d="M11.5507 1.95489C11.384 0.849895 10.427 0 9.275 0C8.12239 0 7.16509 0.850847 6.99915 1.9568C7.72718 1.77047 8.48974 1.67121 9.275 1.67121C10.0515 1.67121 10.8142 1.76723 11.5507 1.95489Z" fill="#2077DD"/>
</svg>
