<svg width="51" height="51" viewBox="0 0 51 51" fill="none" xmlns="http://www.w3.org/2000/svg">
<path d="M49.3813 7.17188V23.7463C48.3179 22.35 47.0596 21.1109 45.646 20.0699V7.17188C45.646 6.14203 44.8082 5.3042 43.7783 5.3042H34.4399C33.4101 5.3042 32.5723 6.14203 32.5723 7.17188V9.3197H28.8369V7.17188C28.8369 6.14203 27.9991 5.3042 26.9692 5.3042H7.17188C6.14203 5.3042 5.3042 6.14203 5.3042 7.17188V29.584C5.3042 30.6138 6.14203 31.4517 7.17188 31.4517H16.8208C16.6176 32.5419 16.5103 33.6651 16.5103 34.8135C16.5103 34.9384 16.5126 35.0627 16.5149 35.187H7.17188C4.08204 35.187 1.56885 32.6738 1.56885 29.584V7.17188C1.56885 4.08204 4.08204 1.56885 7.17188 1.56885H26.9692C28.4033 1.56885 29.7124 2.11106 30.7046 3.00025C31.6968 2.11106 33.0059 1.56885 34.4399 1.56885H43.7783C46.8682 1.56885 49.3813 4.08204 49.3813 7.17188ZM28.8369 13.0551V17.513C30.0311 17.0994 31.2809 16.8062 32.5723 16.6477V13.0551H28.8369ZM35.6977 32.9464L35.665 32.9289C34.5333 32.3446 34.5333 32.183 34.5333 31.9154C34.5333 31.8138 34.6556 31.6915 34.8076 31.6915C34.9784 31.6915 35.0983 31.7782 35.0983 31.8252H38.8336C38.8336 30.3416 37.9596 29.0514 36.6812 28.4024V26.1381H32.9458V28.4106C31.6702 29.0736 30.798 30.3955 30.798 31.9154C30.798 34.6194 32.9271 35.7193 33.9503 36.2478L33.9835 36.2653C34.456 36.509 35.3306 36.961 35.4669 37.2067C35.4669 37.2099 35.4672 37.2146 35.4672 37.2204C35.4672 37.5563 35.1464 37.8735 34.8076 37.8735C34.4627 37.8735 34.1598 37.5826 34.1598 37.2508H30.4244C30.4244 38.9924 31.4575 40.4979 32.9458 41.1954V43.3207H36.6812V41.1834C37.1282 40.9683 37.5426 40.6759 37.9068 40.3117C38.742 39.4765 39.2025 38.3784 39.2025 37.2204C39.2025 34.7566 37.0932 33.6672 35.6977 32.9464ZM49.3813 34.8135C49.3813 42.8462 42.8462 49.3813 34.8135 49.3813C26.7807 49.3813 20.2456 42.8462 20.2456 34.8135C20.2456 26.7807 26.7807 20.2456 34.8135 20.2456C42.8462 20.2456 49.3813 26.7807 49.3813 34.8135ZM45.646 34.8135C45.646 28.8404 40.7865 23.981 34.8135 23.981C28.8404 23.981 23.981 28.8404 23.981 34.8135C23.981 40.7865 28.8404 45.646 34.8135 45.646C40.7865 45.646 45.646 40.7865 45.646 34.8135ZM25.1016 9.3197H9.03955V13.0551H25.1016V9.3197ZM9.03955 19.5919H19.4985V15.8566H9.03955V19.5919Z" fill="#ED6E9B"/>
</svg>
