<svg width="22" height="23" viewBox="0 0 22 23" fill="none" xmlns="http://www.w3.org/2000/svg">
<g clip-path="url(#clip0)">
<path d="M22 10.2365V13.136L19.0697 13.9154C18.887 14.577 18.6225 15.2125 18.2795 15.8143L19.7781 18.4171L17.7308 20.4644L15.128 18.9658C14.5264 19.3088 13.8908 19.5733 13.2292 19.756L12.4498 22.6863H9.55023L8.77078 19.756C8.10919 19.5733 7.4736 19.3088 6.87195 18.9659L4.26916 20.4645L2.22187 18.4171L3.72045 15.8144C3.37739 15.2126 3.11296 14.5771 2.9303 13.9155L0 13.136V10.2366L2.93034 9.45715C3.11304 8.79551 3.37752 8.16001 3.72049 7.55827L2.22191 4.95552L4.2692 2.90819L6.87199 4.40677C7.47364 4.06375 8.10919 3.79928 8.77078 3.61658L9.55023 0.686279H12.4498L13.2293 3.61649C13.8909 3.79924 14.5264 4.06367 15.1281 4.40669L17.7308 2.90811L19.7781 4.95544L18.2796 7.55819C18.6226 8.15992 18.887 8.79543 19.0697 9.45706L22 10.2365ZM17.6209 10.8502L17.5133 10.3304C17.3452 9.51795 17.025 8.74838 16.562 8.04305L16.2717 7.60094L17.6314 5.23938L17.4469 5.05491L15.0853 6.41466L14.6432 6.1244C13.9379 5.66129 13.1683 5.34121 12.3559 5.17303L11.8361 5.0654L11.1284 2.40503H10.8716L10.164 5.06544L9.64412 5.17308C8.83171 5.34126 8.06214 5.66137 7.35681 6.12445L6.9147 6.4147L4.5531 5.05495L4.36863 5.23942L5.72834 7.60098L5.43808 8.04309C4.97496 8.74842 4.65489 9.51799 4.48675 10.3304L4.37916 10.8502L1.71875 11.5578V11.8147L4.37912 12.5224L4.48671 13.0422C4.6548 13.8546 4.97492 14.6241 5.43804 15.3295L5.72829 15.7716L4.36859 18.1332L4.55305 18.3177L6.9147 16.9579L7.35685 17.2482C8.0621 17.7113 8.83162 18.0313 9.64404 18.1995L10.1639 18.3071L10.8716 20.9675H11.1284L11.836 18.3071L12.3559 18.1995C13.1683 18.0313 13.9379 17.7113 14.6431 17.2482L15.0853 16.9579L17.4469 18.3177L17.6314 18.1332L16.2717 15.7716L16.5619 15.3295C17.0251 14.6241 17.3452 13.8546 17.5132 13.0422L17.6208 12.5224L20.2812 11.8147V11.5579L17.6209 10.8502Z" fill="#2077DD"/>
<path d="M11 16.6707C8.25159 16.6707 6.01562 14.4346 6.01562 11.6863C6.01562 8.93791 8.25159 6.7019 11 6.7019C13.7484 6.7019 15.9844 8.93791 15.9844 11.6863C15.9844 14.4346 13.7484 16.6707 11 16.6707ZM11 8.42065C9.19935 8.42065 7.73438 9.88559 7.73438 11.6863C7.73438 13.487 9.19935 14.9519 11 14.9519C12.8006 14.9519 14.2656 13.487 14.2656 11.6863C14.2656 9.88559 12.8006 8.42065 11 8.42065Z" fill="#2077DD"/>
</g>
<defs>
<clipPath id="clip0">
<rect width="22" height="22" fill="white" transform="matrix(1 0 0 -1 0 22.6863)"/>
</clipPath>
</defs>
</svg>
