<svg width="51" height="51" viewBox="0 0 51 51" fill="none" xmlns="http://www.w3.org/2000/svg">
<path d="M42.5332 12.7072V0H8.4668V12.7072L0 19.0223V45.0234C0 48.3191 2.68089 51 5.97656 51H45.0234C48.3191 51 51 48.3191 51 45.0234V19.0223L42.5332 12.7072ZM45.5028 19.8927L42.5332 22.1016V17.6779L45.5028 19.8927ZM38.5488 3.98438V25.0654L25.5 34.7711L12.4512 25.0654V3.98438H38.5488ZM8.4668 22.1016L5.49719 19.8927L8.4668 17.6779V22.1016ZM45.0234 47.0156H5.97656C4.87814 47.0156 3.98438 46.1219 3.98438 45.0234V23.7335L25.5 39.7367L47.0156 23.7335V45.0234C47.0156 46.1219 46.1219 47.0156 45.0234 47.0156ZM21.3145 26.5887C20.1596 25.4366 19.5234 23.9168 19.5234 22.309V22.1133H23.5078V22.309C23.5078 23.4362 24.4658 24.3883 25.5996 24.3883C26.714 24.3883 27.6914 23.3969 27.6914 22.2666C27.6914 21.3977 26.7358 20.8063 24.7074 19.7534L24.6817 19.7398C23.0876 18.9122 20.1211 17.3721 20.1211 13.6087C20.1211 11.3419 21.5689 9.40102 23.6074 8.6201V6.375H27.5918V8.60999C28.2607 8.86018 28.8774 9.23643 29.4066 9.72748C30.4844 10.7279 31.0781 12.0831 31.0781 13.5434V14.0414H27.0938V13.5434C27.0938 12.7251 26.3338 12.236 25.5996 12.236C24.7759 12.236 24.1055 12.8519 24.1055 13.6087C24.1055 14.6753 24.6016 15.2087 26.5175 16.2036L26.5436 16.2173C27.6564 16.7951 28.8073 17.3927 29.7455 18.2168C31.0264 19.3425 31.6758 20.7051 31.6758 22.2666C31.6758 23.8716 31.0431 25.3953 29.8949 26.5572C29.2307 27.2288 28.4451 27.7264 27.5918 28.0295V30.1816H23.6074V28.0342C22.7576 27.7362 21.9755 27.2478 21.3145 26.5887Z" fill="#4557F4"/>
</svg>
