<svg width="23" height="24" viewBox="0 0 23 24" fill="none" xmlns="http://www.w3.org/2000/svg">
<path d="M19.6318 15.5545C18.3792 14.302 16.8883 13.3748 15.2617 12.8135C17.0039 11.6136 18.1484 9.60543 18.1484 7.33472C18.1484 3.66878 15.1659 0.686279 11.5 0.686279C7.83406 0.686279 4.85156 3.66878 4.85156 7.33472C4.85156 9.60543 5.99613 11.6136 7.73833 12.8135C6.11171 13.3748 4.62084 14.302 3.36829 15.5545C1.19622 17.7266 0 20.6145 0 23.6863H1.79688C1.79688 18.3359 6.14967 13.9832 11.5 13.9832C16.8503 13.9832 21.2031 18.3359 21.2031 23.6863H23C23 20.6145 21.8038 17.7266 19.6318 15.5545ZM11.5 12.1863C8.82486 12.1863 6.64844 10.0099 6.64844 7.33472C6.64844 4.65953 8.82486 2.48315 11.5 2.48315C14.1751 2.48315 16.3516 4.65953 16.3516 7.33472C16.3516 10.0099 14.1751 12.1863 11.5 12.1863Z" fill="#2077DD"/>
</svg>
